<svg width="18" height="18" viewBox="0 0 18 18" fill="none" xmlns="http://www.w3.org/2000/svg">
<path d="M17.2635 1.70711C17.654 1.31658 17.654 0.683411 17.2635 0.292893C16.8729 -0.0976256 16.2398 -0.0976364 15.8492 0.292893L8.77817 7.36396L1.70711 0.292893C1.31659 -0.0976256 0.683422 -0.0976364 0.292893 0.292893C-0.0976364 0.683422 -0.0976256 1.31659 0.292893 1.70711L7.36396 8.77817L0.292893 15.8492C-0.0976364 16.2398 -0.0976256 16.8729 0.292893 17.2635C0.683411 17.654 1.31658 17.654 1.70711 17.2635L8.77817 10.1924L15.8492 17.2635C16.2398 17.654 16.8729 17.654 17.2635 17.2635C17.654 16.8729 17.654 16.2398 17.2635 15.8492L10.1924 8.77817L17.2635 1.70711Z" fill="#2680D1"/>
</svg>
