<svg width="18" height="18" viewBox="0 0 18 18" fill="none" xmlns="http://www.w3.org/2000/svg">
<path d="M17.577 5.11258C17.577 7.82132 17.577 10.5301 17.577 13.2388C17.5701 13.2593 17.5701 13.2867 17.5633 13.3072C17.5359 13.5124 17.5223 13.7108 17.4812 13.916C17.3102 14.7642 16.9408 15.5098 16.3594 16.1528C15.5728 17.0146 14.6015 17.5277 13.4455 17.6918C13.3292 17.7055 13.2061 17.7192 13.0829 17.7329C10.3742 17.7329 7.66544 17.7329 4.9567 17.7329C4.93618 17.726 4.90881 17.7192 4.88829 17.7192C4.55312 17.6987 4.21795 17.6371 3.89646 17.5413C3.19875 17.3361 2.57628 16.9941 2.04274 16.5085C1.18087 15.7218 0.667854 14.7574 0.510528 13.6013C0.496847 13.4851 0.483163 13.3619 0.469482 13.2388C0.469482 10.5301 0.469482 7.82132 0.469482 5.11258C0.476323 5.08522 0.476326 5.0647 0.483166 5.03734C0.503687 4.86633 0.517365 4.69532 0.544726 4.52432C0.749934 3.42987 1.27663 2.51328 2.11798 1.78137C2.83621 1.15891 3.66388 0.789532 4.60784 0.666408C4.72412 0.652727 4.84041 0.639047 4.9567 0.625366C7.66544 0.625366 10.3742 0.625366 13.0829 0.625366C13.1035 0.632206 13.1308 0.632206 13.1513 0.639047C13.3771 0.673248 13.6096 0.686928 13.8354 0.73481C14.6425 0.905817 15.3607 1.26835 15.9764 1.82241C16.8519 2.60904 17.3718 3.5872 17.5359 4.75689C17.5496 4.87317 17.5633 4.98945 17.577 5.11258ZM9.02665 13.916C11.6533 13.916 13.7738 11.7955 13.7738 9.1757C13.7806 6.56271 11.667 4.44907 9.08138 4.42171C6.42735 4.38751 4.26583 6.54219 4.27267 9.1757C4.27951 11.7955 6.39999 13.916 9.02665 13.916ZM15.6754 3.47092C15.6754 2.95106 15.2445 2.52012 14.7246 2.52012C14.2047 2.52012 13.7806 2.94422 13.7738 3.46408C13.7738 3.98394 14.1979 4.41487 14.7246 4.42171C15.2445 4.42171 15.6754 3.99078 15.6754 3.47092Z" fill="white"/>
<path d="M9.02671 12.0212C7.45344 12.0212 6.17432 10.7421 6.17432 9.1688C6.17432 7.59554 7.4466 6.31641 9.02671 6.31641C10.6 6.31641 11.8791 7.5887 11.8791 9.16196C11.8791 10.7421 10.6 12.0212 9.02671 12.0212Z" fill="white"/>
</svg>
