<svg width="30" height="31" viewBox="0 0 30 31" fill="none" xmlns="http://www.w3.org/2000/svg">
<rect width="30" height="4" rx="2" fill="white"/>
<rect y="8" width="30" height="4" rx="2" fill="white"/>
<rect y="16" width="30" height="4" rx="2" fill="white"/>
<path d="M1.0097 30.0965C1 30.1535 1 30.2106 1 30.2582C1 30.6766 1.31046 30.9429 1.69854 30.9429C2.19333 30.9429 2.38737 30.7242 2.45528 30.2772L3.02769 26.4062H3.0471L4.21132 30.3913C4.27924 30.6196 4.46357 30.9429 4.98748 30.9429C5.51138 30.9429 5.69571 30.6196 5.76363 30.3913L6.92785 26.4062H6.94726L7.51967 30.2772C7.58758 30.7242 7.78162 30.9429 8.27641 30.9429C8.66449 30.9429 8.97495 30.6766 8.97495 30.2582C8.97495 30.2106 8.97495 30.1535 8.96525 30.0965L8.06297 24.7894C8.00476 24.447 7.62639 24.0571 7.11219 24.0571C6.62709 24.0571 6.24872 24.3995 6.142 24.7418L4.99718 28.5082H4.97777L3.83295 24.7418C3.72623 24.3995 3.34786 24.0571 2.86276 24.0571C2.34856 24.0571 1.97019 24.447 1.91198 24.7894L1.0097 30.0965Z" fill="white"/>
<path d="M9.64552 30.1726C9.64552 30.6005 9.96568 30.8859 10.3926 30.8859H12.8956C13.3516 30.8859 13.5845 30.553 13.5845 30.2296C13.5845 29.8967 13.3613 29.5734 12.8956 29.5734H11.1008V28.1277H12.6919C13.1576 28.1277 13.4001 27.7948 13.4001 27.4715C13.4001 27.1386 13.1673 26.8152 12.6919 26.8152H11.1008V25.4266H12.8083C13.2643 25.4266 13.4972 25.0938 13.4972 24.7704C13.4972 24.4375 13.274 24.1141 12.8083 24.1141H10.4023C9.88806 24.1141 9.64552 24.466 9.64552 24.9416V30.1726Z" fill="white"/>
<path d="M14.1364 30.2011C14.1364 30.6766 14.4469 30.9429 14.8641 30.9429C15.2813 30.9429 15.5917 30.6766 15.5917 30.2011V28.1277H18.6381V30.2011C18.6381 30.6766 18.9486 30.9429 19.3657 30.9429C19.7829 30.9429 20.0934 30.6766 20.0934 30.2011V24.7989C20.0934 24.3234 19.7829 24.0571 19.3657 24.0571C18.9486 24.0571 18.6381 24.3234 18.6381 24.7989V26.8152H15.5917V24.7989C15.5917 24.3234 15.2813 24.0571 14.8641 24.0571C14.4469 24.0571 14.1364 24.3234 14.1364 24.7989V30.2011Z" fill="white"/>
<path d="M28.4865 27.5C28.4865 28.6603 27.8947 29.6875 26.6625 29.6875C25.4304 29.6875 24.8386 28.6603 24.8386 27.5C24.8386 26.3492 25.4498 25.3125 26.6625 25.3125C27.8753 25.3125 28.4865 26.3492 28.4865 27.5ZM23.3736 28.1277C23.6356 29.7826 24.9065 31 26.6625 31C28.6514 31 30 29.4687 30 27.5C30 25.5693 28.6126 24 26.6625 24C24.9162 24 23.655 25.1793 23.3833 26.8152H22.4228V24.7989C22.4228 24.3234 22.1124 24.0571 21.6952 24.0571C21.278 24.0571 20.9675 24.3234 20.9675 24.7989V30.2011C20.9675 30.6766 21.278 30.9429 21.6952 30.9429C22.1124 30.9429 22.4228 30.6766 22.4228 30.2011V28.1277H23.3736Z" fill="white"/>
</svg>
