<svg width="29" height="34" viewBox="0 0 29 34" fill="none" xmlns="http://www.w3.org/2000/svg">
<rect x="1.97913" y="22.1924" width="30" height="4" rx="2" transform="rotate(-45 1.97913 22.1924)" fill="white"/>
<rect x="4.8075" y="0.979156" width="30" height="4" rx="2" transform="rotate(45 4.8075 0.979156)" fill="white"/>
<path d="M0.0097019 33.0965C1.80712e-08 33.1535 0 33.2106 0 33.2582C0 33.6766 0.31046 33.9429 0.698536 33.9429C1.19333 33.9429 1.38737 33.7242 1.45528 33.2772L2.02769 29.4062H2.0471L3.21132 33.3913C3.27924 33.6196 3.46357 33.9429 3.98748 33.9429C4.51138 33.9429 4.69571 33.6196 4.76363 33.3913L5.92785 29.4062H5.94726L6.51967 33.2772C6.58758 33.7242 6.78162 33.9429 7.27641 33.9429C7.66449 33.9429 7.97495 33.6766 7.97495 33.2582C7.97495 33.2106 7.97495 33.1535 7.96525 33.0965L7.06297 27.7894C7.00476 27.447 6.62639 27.0571 6.11219 27.0571C5.62709 27.0571 5.24872 27.3995 5.142 27.7418L3.99718 31.5082H3.97777L2.83295 27.7418C2.72623 27.3995 2.34786 27.0571 1.86276 27.0571C1.34856 27.0571 0.970189 27.447 0.911977 27.7894L0.0097019 33.0965Z" fill="white"/>
<path d="M8.64552 33.1726C8.64552 33.6005 8.96568 33.8859 9.39256 33.8859H11.8956C12.3516 33.8859 12.5845 33.553 12.5845 33.2296C12.5845 32.8967 12.3613 32.5734 11.8956 32.5734H10.1008V31.1277H11.6919C12.1576 31.1277 12.4001 30.7948 12.4001 30.4715C12.4001 30.1386 12.1673 29.8152 11.6919 29.8152H10.1008V28.4266H11.8083C12.2643 28.4266 12.4972 28.0938 12.4972 27.7704C12.4972 27.4375 12.274 27.1141 11.8083 27.1141H9.40226C8.88806 27.1141 8.64552 27.466 8.64552 27.9416V33.1726Z" fill="white"/>
<path d="M13.1364 33.2011C13.1364 33.6766 13.4469 33.9429 13.8641 33.9429C14.2813 33.9429 14.5917 33.6766 14.5917 33.2011V31.1277H17.6381V33.2011C17.6381 33.6766 17.9486 33.9429 18.3657 33.9429C18.7829 33.9429 19.0934 33.6766 19.0934 33.2011V27.7989C19.0934 27.3234 18.7829 27.0571 18.3657 27.0571C17.9486 27.0571 17.6381 27.3234 17.6381 27.7989V29.8152H14.5917V27.7989C14.5917 27.3234 14.2813 27.0571 13.8641 27.0571C13.4469 27.0571 13.1364 27.3234 13.1364 27.7989V33.2011Z" fill="white"/>
<path d="M27.4865 30.5C27.4865 31.6603 26.8947 32.6875 25.6625 32.6875C24.4304 32.6875 23.8386 31.6603 23.8386 30.5C23.8386 29.3492 24.4498 28.3125 25.6625 28.3125C26.8753 28.3125 27.4865 29.3492 27.4865 30.5ZM22.3736 31.1277C22.6356 32.7826 23.9065 34 25.6625 34C27.6514 34 29 32.4687 29 30.5C29 28.5693 27.6126 27 25.6625 27C23.9162 27 22.655 28.1793 22.3833 29.8152H21.4228V27.7989C21.4228 27.3234 21.1124 27.0571 20.6952 27.0571C20.278 27.0571 19.9675 27.3234 19.9675 27.7989V33.2011C19.9675 33.6766 20.278 33.9429 20.6952 33.9429C21.1124 33.9429 21.4228 33.6766 21.4228 33.2011V31.1277H22.3736Z" fill="white"/>
</svg>
