<svg width="10" height="10" viewBox="0 0 10 10" fill="none" xmlns="http://www.w3.org/2000/svg">
<path d="M8.77818 1.70711C9.1687 1.31659 9.16872 0.683437 8.77818 0.292897C8.38764 -0.0976431 7.75448 -0.0976215 7.36396 0.292897L4.53554 3.12132L1.70711 0.292897C1.31657 -0.0976431 0.683416 -0.0976215 0.292897 0.292897C-0.0976215 0.683416 -0.0976431 1.31657 0.292897 1.70711L3.12132 4.53554L0.292897 7.36396C-0.0976215 7.75448 -0.0976431 8.38764 0.292897 8.77818C0.683437 9.16872 1.31659 9.1687 1.70711 8.77818L4.53554 5.94975L7.36396 8.77818C7.7545 9.16872 8.38766 9.1687 8.77818 8.77818C9.1687 8.38766 9.16872 7.7545 8.77818 7.36396L5.94975 4.53554L8.77818 1.70711Z" fill="white"/>
</svg>
