<svg width="14" height="22" viewBox="0 0 14 22" fill="none" xmlns="http://www.w3.org/2000/svg">
<path d="M6.72929 3.32437C8.02894 3.32437 9.08234 4.37777 9.08234 5.67742C9.08234 6.97023 8.02894 8.02363 6.72929 8.02363C5.43648 8.02363 4.37624 6.97023 4.37624 5.67742C4.38308 4.38461 5.43648 3.32437 6.72929 3.32437ZM6.72929 11.3548C9.86213 11.3548 12.4067 8.81026 12.4067 5.67742C12.4067 2.54458 9.86213 0 6.72929 0C3.59645 0 1.05187 2.54458 1.05187 5.67742C1.05871 8.81026 3.60329 11.3548 6.72929 11.3548ZM9.02762 15.9857C10.1836 15.7189 11.2986 15.2675 12.3246 14.6176C13.1044 14.1251 13.337 13.0991 12.8445 12.3262C12.3588 11.5464 11.3259 11.3138 10.553 11.8063C8.2273 13.2701 5.23127 13.2701 2.91242 11.8063C2.13263 11.3138 1.10659 11.5532 0.620934 12.3262C0.128435 13.1059 0.367841 14.132 1.14079 14.6176C2.16683 15.2606 3.28179 15.7189 4.4378 15.9857L1.26392 19.1596C0.61409 19.8094 0.61409 20.8628 1.26392 21.5126C1.59225 21.8341 2.01635 21.9983 2.44044 21.9983C2.86454 21.9983 3.29548 21.8341 3.61697 21.5126L6.73613 18.3935L9.85529 21.5126C10.5051 22.1625 11.5585 22.1625 12.2083 21.5126C12.8582 20.8628 12.8582 19.8094 12.2083 19.1596L9.02762 15.9857Z" fill="white"/>
</svg>
