<svg width="21" height="21" viewBox="0 0 21 21" fill="none" xmlns="http://www.w3.org/2000/svg">
<path d="M13.7939 5.78504C14.1864 5.39263 14.8225 5.39262 15.215 5.78504C17.5694 8.13946 17.5694 11.9567 15.215 14.3111C14.8226 14.7035 14.1864 14.7035 13.7939 14.3111C13.4015 13.9187 13.4015 13.2825 13.7939 12.8901C15.3636 11.3205 15.3636 8.77568 13.7939 7.20605C13.4015 6.81364 13.4015 6.17745 13.7939 5.78504Z" fill="#2680D1"/>
<path fill-rule="evenodd" clip-rule="evenodd" d="M3.84685 2.94301C7.77086 -0.981009 14.133 -0.980998 18.057 2.94301C21.981 6.86702 21.981 13.2291 18.057 17.1532C14.3728 20.8374 8.53931 21.0625 4.59244 17.8286L1.71532 20.7057C1.32292 21.0981 0.686728 21.0981 0.29431 20.7057C-0.0981086 20.3133 -0.0980978 19.6771 0.29431 19.2847L3.17142 16.4076C-0.0624942 12.4607 0.162618 6.62724 3.84685 2.94301ZM16.636 4.36402C13.4968 1.22481 8.40707 1.22481 5.26786 4.36402C2.12864 7.50324 2.12864 12.5929 5.26786 15.7321C8.40707 18.8714 13.4968 18.8714 16.636 15.7321C19.7752 12.5929 19.7752 7.50324 16.636 4.36402Z" fill="#2680D1"/>
</svg>
