<svg width="17" height="17" viewBox="0 0 17 17" fill="none" xmlns="http://www.w3.org/2000/svg">
<path d="M8.43196 9.86393e-05C13.0504 -0.0197598 16.893 3.80546 16.8407 8.51935C16.791 13.0694 13.0256 16.907 8.28522 16.84C3.76374 16.778 -0.0638561 13.0247 0.000807556 8.29098C0.0629842 3.75333 3.80104 -0.0222421 8.43196 9.86393e-05ZM3.5598 8.42254C3.56228 8.7502 3.66674 9.03815 3.90052 9.27397C4.72374 10.0956 5.54199 10.9222 6.36769 11.7414C6.82531 12.1956 7.60128 12.1956 8.05641 11.7414C9.69041 10.113 11.3219 8.47963 12.951 6.84628C13.334 6.46152 13.3912 5.80371 13.0977 5.34697C12.6575 4.66186 11.7398 4.5576 11.1628 5.13101C9.89435 6.39698 8.62595 7.66296 7.36501 8.93389C7.24811 9.05056 7.18096 9.05553 7.06407 8.93389C6.60396 8.45977 6.1364 7.99558 5.66634 7.53139C5.27836 7.14912 4.81576 7.08706 4.32333 7.26827C3.85327 7.44451 3.55731 7.91367 3.5598 8.42254Z" fill="#00E700"/>
</svg>
