<svg width="26" height="16" viewBox="0 0 26 16" fill="none" xmlns="http://www.w3.org/2000/svg">
<path d="M8.60121 1.95232C8.80642 1.4735 9.17579 1.22725 9.62041 1.14517C10.1745 1.04257 10.7491 0.967322 11.31 0.960482C12.1855 0.953642 13.0679 0.967322 13.9366 1.06309C14.9285 1.17937 15.1884 1.48718 15.2089 2.4927C15.2294 3.62818 15.1679 4.77051 15.1542 5.90599C15.1542 6.28905 15.1405 6.6721 15.1815 7.04832C15.2089 7.28089 15.2636 7.53398 15.3731 7.7597C15.592 8.218 15.934 8.32061 16.276 7.95807C16.8506 7.34929 17.432 6.71998 17.8492 6.0086C18.5401 4.83891 19.1215 3.6145 19.7098 2.39694C20.0313 1.74027 20.1202 1.64451 20.8521 1.63767C22.1723 1.61715 23.4925 1.61031 24.8195 1.58979C25.9276 1.57611 26.2765 2.02072 25.7498 2.99888C25.1752 4.07964 24.4706 5.09884 23.7798 6.12488C23.2462 6.91151 22.6306 7.63658 22.0834 8.41637C21.5498 9.17564 21.5703 9.55869 22.2065 10.2154C22.8837 10.9199 23.6156 11.5629 24.2723 12.288C24.7921 12.8557 25.2915 13.4645 25.7087 14.1211C26.2559 14.9625 25.9208 15.5986 24.9016 15.6465C23.5814 15.7149 22.2544 15.7013 20.941 15.7218C20.8658 15.7218 20.7906 15.6944 20.7153 15.6876C20.0244 15.5439 19.4704 15.1609 18.9847 14.6752C18.3349 14.0117 17.7398 13.3003 17.0626 12.671C16.3786 12.0212 15.7766 12.1854 15.462 13.0814C15.2978 13.5602 15.2363 14.0938 15.1884 14.6068C15.1337 15.1882 14.9079 15.4208 14.3197 15.4003C13.5399 15.3798 12.7601 15.4276 11.9871 15.3729C9.93506 15.243 8.17711 14.4016 6.68593 13.0062C5.57097 11.9528 4.66806 10.7284 3.84038 9.45609C2.43129 7.28089 1.2274 4.99624 0.160323 2.65003C-0.16801 1.95916 -0.00384366 1.63767 0.762266 1.61031C2.00035 1.56927 3.23844 1.56927 4.46969 1.58979C4.96219 1.59663 5.31788 1.88392 5.50941 2.36274C6.10451 3.86075 6.87062 5.27669 7.7667 6.6037C8.08135 7.07568 8.43704 7.53398 8.84062 7.91703C9.35364 8.40953 9.79825 8.27956 9.98294 7.59554C10.1061 7.1646 10.1813 6.7063 10.195 6.26169C10.2224 5.46138 10.2224 4.66791 10.1676 3.88127C10.0992 2.64319 9.80509 2.30117 8.60121 1.95232Z" fill="white"/>
</svg>
