<svg width="21" height="16" viewBox="0 0 21 16" fill="none" xmlns="http://www.w3.org/2000/svg">
<path d="M20.7828 3.47639C20.7828 1.67056 19.4558 0.227264 17.8142 0.227264C15.5911 0.12466 13.327 0.0836182 11.0149 0.0836182H10.6524H10.2899C7.97786 0.0836182 5.71374 0.12466 3.49065 0.227264C1.85583 0.227264 0.528814 1.68424 0.528814 3.49007C0.426211 4.91968 0.385164 6.34246 0.385164 7.77207C0.378324 9.20169 0.426214 10.6245 0.521978 12.0609C0.521978 13.8667 1.84898 15.3306 3.4838 15.3306C5.81633 15.4332 8.21043 15.4879 10.6387 15.4811C13.0739 15.4879 15.4611 15.44 17.8005 15.3306C19.4421 15.3306 20.7692 13.8667 20.7692 12.0609C20.8649 10.6313 20.9128 9.20169 20.906 7.77207C20.9265 6.33562 20.8854 4.906 20.7828 3.47639ZM8.69609 11.6984V3.82524L14.5103 7.76523L8.69609 11.6984Z" fill="white"/>
</svg>
